<?xml version="1.0" encoding="UTF-8" standalone="no"?>
<!-- Created with Inkscape (http://www.inkscape.org/) -->

<svg
   width="156.18343mm"
   height="27.436762mm"
   viewBox="0 0 156.18343 27.436762"
   version="1.1"
   id="svg525"
   inkscape:version="1.1.2 (b8e25be8, 2022-02-05)"
   sodipodi:docname="logo.svg"
   xmlns:inkscape="http://www.inkscape.org/namespaces/inkscape"
   xmlns:sodipodi="http://sodipodi.sourceforge.net/DTD/sodipodi-0.dtd"
   xmlns="http://www.w3.org/2000/svg"
   xmlns:svg="http://www.w3.org/2000/svg">
  <sodipodi:namedview
     id="namedview527"
     pagecolor="#ffffff"
     bordercolor="#111111"
     borderopacity="1"
     inkscape:pageshadow="0"
     inkscape:pageopacity="0"
     inkscape:pagecheckerboard="1"
     inkscape:document-units="mm"
     showgrid="false"
     inkscape:zoom="0.48818743"
     inkscape:cx="255.025"
     inkscape:cy="247.85562"
     inkscape:window-width="1312"
     inkscape:window-height="770"
     inkscape:window-x="0"
     inkscape:window-y="25"
     inkscape:window-maximized="0"
     inkscape:current-layer="layer1" />
  <defs
     id="defs522" />
  <g
     inkscape:label="Lager 1"
     inkscape:groupmode="layer"
     id="layer1"
     transform="translate(-37.34807,-82.752418)">
    <g
       id="g243"
       transform="matrix(0.35277777,0,0,-0.35277777,7.7788013,340.09731)">
      <g
         id="g25"
         transform="translate(110.2356,651.7081)">
        <path
           d="m 0,0 h -8.432 c 0.315,0.698 0.677,1.452 1.095,2.268 10.261,20.047 32.669,39.933 39.458,39.933 1.421,0 2.051,-0.945 2.051,-3.157 C 34.172,29.465 20.413,9.005 0,0"
           style="fill:#1e4065;fill-opacity:1;fill-rule:nonzero;stroke:none"
           id="path27" />
      </g>
      <g
         id="g29"
         transform="translate(91.3774,656.1876)">
        <path
           d="m 0,0 c 0,-1.695 0.124,-3.183 0.351,-4.479 h -7.91 V 73.294 H 30.835 C 17.308,57.257 0,19.551 0,0"
           style="fill:#1e4065;fill-opacity:1;fill-rule:nonzero;stroke:none"
           id="path31" />
      </g>
      <g
         id="g33"
         transform="translate(161.5972,729.4816)">
        <path
           d="m 0,0 v -77.773 h -34.208 c 14.296,7.946 26.649,24.427 26.649,36.678 0,6.783 -4.262,10.576 -9,10.576 -12.307,0 -34.88,-21.783 -45.611,-41.669 1.731,21.229 24.609,63.446 38.512,72.188 z"
           style="fill:#1e4065;fill-opacity:1;fill-rule:nonzero;stroke:none"
           id="path35" />
      </g>
      <g
         id="g37"
         transform="translate(196.9303,672.2844)">
        <path
           d="m 0,0 v 9.43 c 0,2.292 -0.339,4.024 -1.013,5.2 -0.677,1.175 -1.866,1.762 -3.57,1.762 h -2.82 V -5.553 l 1.498,-0.088 C -1.969,-5.641 0,-3.761 0,0 m -4.318,28.29 c 1.291,0 2.173,0.485 2.644,1.455 0.469,0.969 0.705,2.336 0.705,4.098 v 7.58 c 0,2.467 -1.088,3.701 -3.261,3.701 H -7.403 V 28.29 Z M -22.21,56.758 h 20.536 c 5.522,0 9.532,-1.353 12.03,-4.054 2.497,-2.704 3.746,-7.11 3.746,-13.221 v -3.349 c 0,-7.227 -2.586,-11.545 -7.756,-12.955 3.172,-0.824 5.405,-2.732 6.698,-5.729 1.292,-2.996 1.939,-6.962 1.939,-11.898 0,-8.05 -1.205,-14.145 -3.614,-18.287 -2.409,-4.142 -6.757,-6.214 -13.043,-6.214 H -22.21 Z"
           style="fill:#1e4065;fill-opacity:1;fill-rule:nonzero;stroke:none"
           id="path39" />
      </g>
      <g
         id="g41"
         transform="translate(238.793,691.8501)">
        <path
           d="m 0,0 v 8.284 c 0,4.641 -1.145,6.963 -3.436,6.963 -2.587,0 -3.879,-2.322 -3.879,-6.963 V 0 Z m -18.332,-33.756 c -2.878,3.643 -4.317,9.078 -4.317,16.305 V 8.46 c 0,5.935 1.702,10.458 5.111,13.573 3.407,3.114 8.166,4.671 14.278,4.671 12.396,0 18.596,-6.081 18.596,-18.244 V 3.789 c 0,-4.701 -0.06,-8.519 -0.177,-11.457 H -7.226 v -12.515 c 0,-2.233 0.234,-3.981 0.705,-5.244 0.469,-1.264 1.468,-1.895 2.996,-1.895 1.174,0 2.012,0.353 2.512,1.058 0.498,0.705 0.792,1.512 0.881,2.424 0.088,0.91 0.132,2.247 0.132,4.01 v 6.257 h 15.336 v -3.701 c 0,-7.522 -1.455,-13.059 -4.364,-16.613 -2.907,-3.556 -7.917,-5.332 -15.026,-5.332 -6.641,0 -11.4,1.82 -14.278,5.463"
           style="fill:#1e4065;fill-opacity:1;fill-rule:nonzero;stroke:none"
           id="path43" />
      </g>
      <g
         id="g45"
         transform="translate(259.6799,717.8491)">
        <path
           d="m 0,0 h 15.07 v -7.492 c 0.706,2.762 1.909,4.818 3.614,6.17 1.703,1.351 4.111,2.027 7.227,2.027 2.526,0 4.714,-0.572 6.566,-1.719 1.85,-1.145 3.157,-2.718 3.922,-4.715 1.292,2.232 2.731,3.863 4.319,4.891 1.586,1.028 3.788,1.543 6.609,1.543 5.053,0 8.562,-1.543 10.532,-4.627 1.968,-3.084 2.952,-7.566 2.952,-13.44 L 60.635,-64.513 H 45.124 v 47.415 c 0,4.171 -1.057,6.258 -3.173,6.258 -1.469,0 -2.527,-0.721 -3.174,-2.16 -0.646,-1.44 -0.968,-3.159 -0.968,-5.156 V -64.513 H 22.386 v 47.415 c 0,1.821 -0.192,3.29 -0.573,4.407 -0.383,1.115 -1.19,1.674 -2.424,1.674 -1.587,0 -2.703,-0.779 -3.35,-2.335 -0.647,-1.557 -0.969,-3.423 -0.969,-5.597 V -64.513 H 0 Z"
           style="fill:#1e4065;fill-opacity:1;fill-rule:nonzero;stroke:none"
           id="path47" />
      </g>
      <g
         id="g49"
         transform="translate(346.7984,666.0711)">
        <path
           d="m 0,0 c 0.5,0.969 0.749,2.159 0.749,3.57 v 17.978 c -2.291,-0.881 -3.98,-1.998 -5.067,-3.349 -1.088,-1.352 -1.63,-3.232 -1.63,-5.641 V 4.275 c 0,-3.82 1.145,-5.729 3.436,-5.729 1.176,0 2.012,0.485 2.512,1.454 m -18.861,-8.461 c -1.85,3.319 -2.775,8.064 -2.775,14.234 0,5.052 0.66,8.93 1.983,11.633 1.321,2.702 3.157,4.685 5.508,5.949 2.35,1.263 5.935,2.658 10.752,4.187 l 4.231,1.41 v 0.176 6.434 c 0,1.703 -0.338,3.01 -1.014,3.921 -0.676,0.911 -1.484,1.366 -2.423,1.366 -0.823,0 -1.542,-0.383 -2.16,-1.145 -0.616,-0.765 -0.926,-1.793 -0.926,-3.085 v -3.878 h -14.981 v 2.115 c 0,6.346 1.482,10.87 4.451,13.573 2.965,2.702 7.799,4.054 14.497,4.054 5.346,0 9.694,-1.396 13.044,-4.186 3.349,-2.791 5.023,-6.742 5.023,-11.854 V -12.735 H 1.014 v 7.667 c -0.764,-2.644 -1.983,-4.701 -3.658,-6.169 -1.674,-1.469 -3.657,-2.203 -5.948,-2.203 -4.995,0 -8.417,1.659 -10.269,4.979"
           style="fill:#1e4065;fill-opacity:1;fill-rule:nonzero;stroke:none"
           id="path51" />
      </g>
      <g
         id="g53"
         transform="translate(369.0524,717.8491)">
        <path
           d="m 0,0 h 15.424 v -8.197 c 0.645,2.645 1.762,4.788 3.349,6.434 1.586,1.644 3.701,2.468 6.345,2.468 4.348,0 7.565,-1.337 9.651,-4.01 2.084,-2.674 3.128,-6.478 3.128,-11.413 V -64.513 H 22.739 v 48.209 c 0,1.41 -0.28,2.613 -0.838,3.613 -0.558,0.998 -1.426,1.498 -2.6,1.498 -1.586,0 -2.63,-0.72 -3.128,-2.159 -0.501,-1.441 -0.749,-3.364 -0.749,-5.773 V -64.513 H 0 Z"
           style="fill:#1e4065;fill-opacity:1;fill-rule:nonzero;stroke:none"
           id="path55" />
      </g>
      <g
         id="g57"
         transform="translate(413.0308,717.8491)">
        <path
           d="m 0,0 h 15.423 v -8.197 c 0.645,2.645 1.763,4.788 3.349,6.434 1.586,1.644 3.701,2.468 6.345,2.468 4.348,0 7.565,-1.337 9.651,-4.01 2.085,-2.674 3.128,-6.478 3.128,-11.413 V -64.513 H 22.738 v 48.209 c 0,1.41 -0.28,2.613 -0.838,3.613 -0.558,0.998 -1.425,1.498 -2.599,1.498 -1.587,0 -2.63,-0.72 -3.129,-2.159 -0.501,-1.441 -0.749,-3.364 -0.749,-5.773 V -64.513 H 0 Z"
           style="fill:#1e4065;fill-opacity:1;fill-rule:nonzero;stroke:none"
           id="path59" />
      </g>
      <g
         id="g61"
         transform="translate(479.1292,691.8501)">
        <path
           d="m 0,0 v 8.284 c 0,4.641 -1.145,6.963 -3.436,6.963 -2.587,0 -3.879,-2.322 -3.879,-6.963 V 0 Z m -18.332,-33.756 c -2.878,3.643 -4.317,9.078 -4.317,16.305 V 8.46 c 0,5.935 1.702,10.458 5.111,13.573 3.407,3.114 8.166,4.671 14.278,4.671 12.396,0 18.596,-6.081 18.596,-18.244 V 3.789 c 0,-4.701 -0.06,-8.519 -0.177,-11.457 H -7.226 v -12.515 c 0,-2.233 0.234,-3.981 0.705,-5.244 0.469,-1.264 1.468,-1.895 2.996,-1.895 1.174,0 2.012,0.353 2.512,1.058 0.498,0.705 0.792,1.512 0.881,2.424 0.088,0.91 0.132,2.247 0.132,4.01 v 6.257 h 15.336 v -3.701 c 0,-7.522 -1.455,-13.059 -4.364,-16.613 -2.907,-3.556 -7.917,-5.332 -15.026,-5.332 -6.641,0 -11.4,1.82 -14.278,5.463"
           style="fill:#1e4065;fill-opacity:1;fill-rule:nonzero;stroke:none"
           id="path63" />
      </g>
      <g
         id="g65"
         transform="translate(500.0161,717.8491)">
        <path
           d="m 0,0 h 15.423 v -7.139 c 0.763,2.526 2.1,4.48 4.009,5.861 1.91,1.38 4.275,2.071 7.095,2.071 v -12.867 c -2.173,0 -4.569,-0.309 -7.182,-0.926 -2.615,-0.617 -3.922,-1.337 -3.922,-2.159 V -64.513 H 0 Z"
           style="fill:#1e4065;fill-opacity:1;fill-rule:nonzero;stroke:none"
           id="path67" />
      </g>
    </g>
  </g>
</svg>
